# xmcd
#
# Track frame offsets: 
#        150
#        16528
#        31847
#
# Disc length: 623 seconds
#
# Revision: 0
# Processed by: cddbd v1.5.1PL0 Copyright (c) Steve Scherf et al.
# Submitted via: ExactAudioCopy v0.95a3
#
DISCID=10026d03
DTITLE=Gretchin Wilson - Redneck Woman
DYEAR=2004
DGENRE=Country
TTITLE0=Redneck Woman (Album Version)
TTITLE1=Rebel Child
TTITLE2=It Ain't Easy
EXTD=
EXTT0=
EXTT1=
EXTT2=
PLAYORDER=
